<?xml version="1.0" encoding="UTF-8"?>
<!DOCTYPE svg PUBLIC "-//W3C//DTD SVG 1.1//EN" "http://www.w3.org/Graphics/SVG/1.1/DTD/svg11.dtd">
<svg xmlns="http://www.w3.org/2000/svg" version="1.1" width="140px" height="140px" style="shape-rendering:geometricPrecision; text-rendering:geometricPrecision; image-rendering:optimizeQuality; fill-rule:evenodd; clip-rule:evenodd" xmlns:xlink="http://www.w3.org/1999/xlink">
<g><path style="opacity:1" fill="#f7f7f7" d="M -0.5,-0.5 C 30.1667,-0.5 60.8333,-0.5 91.5,-0.5C 91.5,-0.166667 91.5,0.166667 91.5,0.5C 84.6636,0.843863 81.4969,4.51053 82,11.5C 80.9054,12.6934 80.072,14.0267 79.5,15.5C 77.6528,18.1995 76.6528,21.1995 76.5,24.5C 77.1399,27.8822 77.6399,31.2155 78,34.5C 73.076,34.9235 70.2427,37.5901 69.5,42.5C 67.6396,43.2599 65.973,44.2599 64.5,45.5C 59.7751,46.5522 54.9417,47.5522 50,48.5C 46.9133,46.6795 43.7466,46.3462 40.5,47.5C 32.7914,41.9852 24.4581,37.4852 15.5,34C 12.854,33.5026 10.1873,33.3359 7.5,33.5C 7.09324,39.1613 6.75991,44.828 6.5,50.5C 6.26269,51.791 6.59603,52.791 7.5,53.5C 8.83333,57.1667 10.1667,60.8333 11.5,64.5C 11.5858,65.4959 11.2524,66.3292 10.5,67C 11.1667,67.3333 11.8333,67.6667 12.5,68C 9.3514,68.776 8.8514,70.276 11,72.5C 11.2492,71.376 11.7492,70.376 12.5,69.5C 12.8333,69.8333 13.1667,70.1667 13.5,70.5C 12.6003,72.9316 11.9337,75.4316 11.5,78C 12.26,86.4766 12.76,94.9766 13,103.5C 13.1952,107.188 15.0285,109.522 18.5,110.5C 20.8139,115.128 23.1473,119.795 25.5,124.5C 24.9033,124.735 24.5699,125.235 24.5,126C 26.0679,128.333 27.7346,130.5 29.5,132.5C 32.7224,133.547 34.389,135.881 34.5,139.5C 23.8333,139.5 13.1667,139.5 2.5,139.5C 2.5,135.5 2.5,131.5 2.5,127.5C 1.5,127.5 0.5,127.5 -0.5,127.5C -0.5,84.8333 -0.5,42.1667 -0.5,-0.5 Z"/></g>
<g><path style="opacity:1" fill="#f6f6f6" d="M 98.5,-0.5 C 112.167,-0.5 125.833,-0.5 139.5,-0.5C 139.5,31.8333 139.5,64.1667 139.5,96.5C 138.75,87.9421 137.75,79.2754 136.5,70.5C 136.5,68.1667 136.5,65.8333 136.5,63.5C 135.325,63.719 134.325,63.3857 133.5,62.5C 133.058,61.2613 132.391,60.2613 131.5,59.5C 125.942,56.1217 120.776,52.1217 116,47.5C 115.153,45.1457 114.32,42.8123 113.5,40.5C 113.663,38.1432 113.497,35.8098 113,33.5C 108.855,26.7332 106.522,19.3998 106,11.5C 103.249,7.59801 100.749,3.59801 98.5,-0.5 Z"/></g>
<g><path style="opacity:1" fill="#131313" d="M 91.5,0.5 C 93.5824,0.471988 95.4157,1.13865 97,2.5C 100.309,7.60366 103.142,12.937 105.5,18.5C 104.235,19.5145 103.569,21.0145 103.5,23C 104.363,26.9151 105.696,30.7484 107.5,34.5C 106.737,35.7193 105.737,36.7193 104.5,37.5C 106.138,38.7046 106.471,40.0379 105.5,41.5C 103.979,42.9373 102.145,43.604 100,43.5C 97.1443,43.1289 94.3109,42.6289 91.5,42C 90.6195,41.2917 89.9528,40.4584 89.5,39.5C 93.9847,42.1231 98.4847,42.1231 103,39.5C 103.49,38.2068 103.657,36.8734 103.5,35.5C 104.478,35.189 105.145,34.5223 105.5,33.5C 104.469,32.2997 103.635,30.9663 103,29.5C 104.264,21.1582 101.764,14.3249 95.5,9C 94.2506,8.25988 93.2506,8.42654 92.5,9.5C 90.1749,10.6546 89.0082,12.6546 89,15.5C 87.9887,16.3366 86.8221,16.67 85.5,16.5C 85.7771,19.4475 85.4438,22.2809 84.5,25C 85.0611,26.676 86.0611,28.0094 87.5,29C 87.0426,29.414 86.7093,29.914 86.5,30.5C 88.2526,32.5098 89.2526,34.8431 89.5,37.5C 86.8315,36.9011 84.9982,35.2344 84,32.5C 83.9355,29.2369 83.1022,26.2369 81.5,23.5C 81.9312,22.7065 82.2645,21.8732 82.5,21C 81.3246,19.1409 80.3246,17.3076 79.5,15.5C 80.072,14.0267 80.9054,12.6934 82,11.5C 81.4969,4.51053 84.6636,0.843863 91.5,0.5 Z"/></g>
<g><path style="opacity:1" fill="#9a9a9a" d="M 91.5,0.5 C 91.5,0.166667 91.5,-0.166667 91.5,-0.5C 93.8333,-0.5 96.1667,-0.5 98.5,-0.5C 100.749,3.59801 103.249,7.59801 106,11.5C 106.522,19.3998 108.855,26.7332 113,33.5C 113.497,35.8098 113.663,38.1432 113.5,40.5C 109.748,33.6427 107.081,26.3094 105.5,18.5C 103.142,12.937 100.309,7.60366 97,2.5C 95.4157,1.13865 93.5824,0.471988 91.5,0.5 Z"/></g>
<g><path style="opacity:1" fill="#030303" d="M 79.5,15.5 C 80.3246,17.3076 81.3246,19.1409 82.5,21C 82.2645,21.8732 81.9312,22.7065 81.5,23.5C 83.1022,26.2369 83.9355,29.2369 84,32.5C 84.9982,35.2344 86.8315,36.9011 89.5,37.5C 89.5,38.1667 89.5,38.8333 89.5,39.5C 89.9528,40.4584 90.6195,41.2917 91.5,42C 94.3109,42.6289 97.1443,43.1289 100,43.5C 102.145,43.604 103.979,42.9373 105.5,41.5C 106.471,40.0379 106.138,38.7046 104.5,37.5C 105.737,36.7193 106.737,35.7193 107.5,34.5C 105.696,30.7484 104.363,26.9151 103.5,23C 103.569,21.0145 104.235,19.5145 105.5,18.5C 107.081,26.3094 109.748,33.6427 113.5,40.5C 114.32,42.8123 115.153,45.1457 116,47.5C 120.776,52.1217 125.942,56.1217 131.5,59.5C 131.795,63.7938 133.462,67.4605 136.5,70.5C 137.75,79.2754 138.75,87.9421 139.5,96.5C 139.5,110.833 139.5,125.167 139.5,139.5C 104.5,139.5 69.5,139.5 34.5,139.5C 34.389,135.881 32.7224,133.547 29.5,132.5C 29.6107,131.883 29.944,131.383 30.5,131C 29.0007,128.672 27.334,126.505 25.5,124.5C 23.1473,119.795 20.8139,115.128 18.5,110.5C 18.6061,107.921 17.9395,105.588 16.5,103.5C 16.2479,98.0116 16.9145,92.6782 18.5,87.5C 19.8954,83.5446 19.2288,79.8779 16.5,76.5C 15.9034,71.9831 14.2367,67.9831 11.5,64.5C 10.1667,60.8333 8.83333,57.1667 7.5,53.5C 7.40879,51.3023 8.07546,50.9689 9.5,52.5C 11.5762,57.6508 13.9096,62.6508 16.5,67.5C 18.5396,68.9422 20.873,69.9422 23.5,70.5C 24.5896,69.6086 24.5896,68.6086 23.5,67.5C 25.2601,65.89 26.2601,63.89 26.5,61.5C 24.4055,57.1222 23.2389,52.4555 23,47.5C 20.9307,46.7362 18.764,46.2362 16.5,46C 14.8055,43.7847 13.1388,41.6181 11.5,39.5C 9.46681,43.0155 7.80014,46.6822 6.5,50.5C 6.75991,44.828 7.09324,39.1613 7.5,33.5C 10.1873,33.3359 12.854,33.5026 15.5,34C 24.4581,37.4852 32.7914,41.9852 40.5,47.5C 41.8336,48.6521 43.3336,49.6521 45,50.5C 49.461,49.7529 53.961,49.2529 58.5,49C 60.9096,48.4005 62.9096,47.2338 64.5,45.5C 65.973,44.2599 67.6396,43.2599 69.5,42.5C 70.2427,37.5901 73.076,34.9235 78,34.5C 77.6399,31.2155 77.1399,27.8822 76.5,24.5C 76.6528,21.1995 77.6528,18.1995 79.5,15.5 Z"/></g>
<g><path style="opacity:1" fill="#484848" d="M 103.5,35.5 C 102.596,36.209 102.263,37.209 102.5,38.5C 99.8405,39.3471 97.1738,39.8471 94.5,40C 92.485,37.1347 91.1516,33.9681 90.5,30.5C 93.401,35.9959 96.5677,36.3292 100,31.5C 100.667,26.5 100.667,21.5 100,16.5C 99.2613,15.4258 98.2613,14.7591 97,14.5C 94.5475,16.0233 92.2142,17.69 90,19.5C 89.3155,22.6144 90.1488,25.2811 92.5,27.5C 92.1445,28.5223 91.4778,29.189 90.5,29.5C 90.5858,28.5041 90.2524,27.6708 89.5,27C 88.2624,27.0773 87.2624,26.9106 86.5,26.5C 88.4667,23.9876 88.8,21.321 87.5,18.5C 89.6077,16.694 91.2744,14.5273 92.5,12C 91.4019,11.2303 91.4019,10.397 92.5,9.5C 93.2506,8.42654 94.2506,8.25988 95.5,9C 101.764,14.3249 104.264,21.1582 103,29.5C 103.635,30.9663 104.469,32.2997 105.5,33.5C 105.145,34.5223 104.478,35.189 103.5,35.5 Z"/></g>
<g><path style="opacity:1" fill="#2a2a2a" d="M 92.5,9.5 C 91.4019,10.397 91.4019,11.2303 92.5,12C 91.2744,14.5273 89.6077,16.694 87.5,18.5C 88.8,21.321 88.4667,23.9876 86.5,26.5C 87.2624,26.9106 88.2624,27.0773 89.5,27C 90.2524,27.6708 90.5858,28.5041 90.5,29.5C 90.5,29.8333 90.5,30.1667 90.5,30.5C 91.1516,33.9681 92.485,37.1347 94.5,40C 97.1738,39.8471 99.8405,39.3471 102.5,38.5C 102.263,37.209 102.596,36.209 103.5,35.5C 103.657,36.8734 103.49,38.2068 103,39.5C 98.4847,42.1231 93.9847,42.1231 89.5,39.5C 89.5,38.8333 89.5,38.1667 89.5,37.5C 89.2526,34.8431 88.2526,32.5098 86.5,30.5C 86.7093,29.914 87.0426,29.414 87.5,29C 86.0611,28.0094 85.0611,26.676 84.5,25C 85.4438,22.2809 85.7771,19.4475 85.5,16.5C 86.8221,16.67 87.9887,16.3366 89,15.5C 89.0082,12.6546 90.1749,10.6546 92.5,9.5 Z"/></g>
<g><path style="opacity:1" fill="#707070" d="M 90.5,30.5 C 90.5,30.1667 90.5,29.8333 90.5,29.5C 91.4778,29.189 92.1445,28.5223 92.5,27.5C 90.1488,25.2811 89.3155,22.6144 90,19.5C 92.2142,17.69 94.5475,16.0233 97,14.5C 98.2613,14.7591 99.2613,15.4258 100,16.5C 100.667,21.5 100.667,26.5 100,31.5C 96.5677,36.3292 93.401,35.9959 90.5,30.5 Z"/></g>
<g><path style="opacity:1" fill="#343434" d="M 16.5,67.5 C 18.4672,67.2606 20.3005,67.5939 22,68.5C 22.3333,67.5 22.6667,66.5 23,65.5C 22.1385,59.4441 21.6385,53.4441 21.5,47.5C 19.1667,47.5 16.8333,47.5 14.5,47.5C 14.5,46.5 14.5,45.5 14.5,44.5C 12.8333,44.5 11.1667,44.5 9.5,44.5C 9.5,47.1667 9.5,49.8333 9.5,52.5C 8.07546,50.9689 7.40879,51.3023 7.5,53.5C 6.59603,52.791 6.26269,51.791 6.5,50.5C 7.80014,46.6822 9.46681,43.0155 11.5,39.5C 13.1388,41.6181 14.8055,43.7847 16.5,46C 18.764,46.2362 20.9307,46.7362 23,47.5C 23.2389,52.4555 24.4055,57.1222 26.5,61.5C 26.2601,63.89 25.2601,65.89 23.5,67.5C 24.5896,68.6086 24.5896,69.6086 23.5,70.5C 20.873,69.9422 18.5396,68.9422 16.5,67.5 Z"/></g>
<g><path style="opacity:1" fill="#a5a5a5" d="M 64.5,45.5 C 62.9096,47.2338 60.9096,48.4005 58.5,49C 53.961,49.2529 49.461,49.7529 45,50.5C 43.3336,49.6521 41.8336,48.6521 40.5,47.5C 43.7466,46.3462 46.9133,46.6795 50,48.5C 54.9417,47.5522 59.7751,46.5522 64.5,45.5 Z"/></g>
<g><path style="opacity:1" fill="#787878" d="M 16.5,67.5 C 13.9096,62.6508 11.5762,57.6508 9.5,52.5C 9.5,49.8333 9.5,47.1667 9.5,44.5C 11.1667,44.5 12.8333,44.5 14.5,44.5C 14.5,45.5 14.5,46.5 14.5,47.5C 16.8333,47.5 19.1667,47.5 21.5,47.5C 21.6385,53.4441 22.1385,59.4441 23,65.5C 22.6667,66.5 22.3333,67.5 22,68.5C 20.3005,67.5939 18.4672,67.2606 16.5,67.5 Z"/></g>
<g><path style="opacity:1" fill="#151515" d="M 92.5,59.5 C 94.319,61.3686 96.1523,63.3686 98,65.5C 97.9592,73.1895 94.1259,76.0229 86.5,74C 85,72.5 83.5,71 82,69.5C 81.6012,69.7284 81.4346,70.0618 81.5,70.5C 80.3871,69.0536 80.2204,67.3869 81,65.5C 81.414,65.9574 81.914,66.2907 82.5,66.5C 84.3219,63.8462 86.3219,61.3462 88.5,59C 90.0657,58.235 91.3991,58.4017 92.5,59.5 Z"/></g>
<g><path style="opacity:1" fill="#8b8b8b" d="M 131.5,59.5 C 132.391,60.2613 133.058,61.2613 133.5,62.5C 134.325,63.3857 135.325,63.719 136.5,63.5C 136.5,65.8333 136.5,68.1667 136.5,70.5C 133.462,67.4605 131.795,63.7938 131.5,59.5 Z"/></g>
<g><path style="opacity:1" fill="#424242" d="M 92.5,59.5 C 99.8221,61.3094 101.989,65.6428 99,72.5C 92.2955,79.5662 86.4622,78.8996 81.5,70.5C 81.4346,70.0618 81.6012,69.7284 82,69.5C 83.5,71 85,72.5 86.5,74C 94.1259,76.0229 97.9592,73.1895 98,65.5C 96.1523,63.3686 94.319,61.3686 92.5,59.5 Z"/></g>
<g><path style="opacity:1" fill="#cacaca" d="M 11.5,64.5 C 14.2367,67.9831 15.9034,71.9831 16.5,76.5C 17.4633,80.1007 18.13,83.7674 18.5,87.5C 17.4415,88.6002 16.6082,89.9336 16,91.5C 15.1881,95.6888 15.3547,99.6888 16.5,103.5C 17.9395,105.588 18.6061,107.921 18.5,110.5C 15.0285,109.522 13.1952,107.188 13,103.5C 12.76,94.9766 12.26,86.4766 11.5,78C 11.9337,75.4316 12.6003,72.9316 13.5,70.5C 13.1667,70.1667 12.8333,69.8333 12.5,69.5C 11.7492,70.376 11.2492,71.376 11,72.5C 8.8514,70.276 9.3514,68.776 12.5,68C 11.8333,67.6667 11.1667,67.3333 10.5,67C 11.2524,66.3292 11.5858,65.4959 11.5,64.5 Z"/></g>
<g><path style="opacity:1" fill="#929292" d="M 16.5,76.5 C 19.2288,79.8779 19.8954,83.5446 18.5,87.5C 18.13,83.7674 17.4633,80.1007 16.5,76.5 Z"/></g>
<g><path style="opacity:1" fill="#4d4d4d" d="M 35.5,79.5 C 36.6491,79.7911 37.3158,80.6244 37.5,82C 36.3904,85.4603 36.3904,88.627 37.5,91.5C 33.3261,87.9781 32.6595,83.9781 35.5,79.5 Z"/></g>
<g><path style="opacity:1" fill="#6d6d6d" d="M 18.5,87.5 C 16.9145,92.6782 16.2479,98.0116 16.5,103.5C 15.3547,99.6888 15.1881,95.6888 16,91.5C 16.6082,89.9336 17.4415,88.6002 18.5,87.5 Z"/></g>
<g><path style="opacity:1" fill="#4f4f4f" d="M 25.5,124.5 C 27.334,126.505 29.0007,128.672 30.5,131C 29.944,131.383 29.6107,131.883 29.5,132.5C 27.7346,130.5 26.0679,128.333 24.5,126C 24.5699,125.235 24.9033,124.735 25.5,124.5 Z"/></g>
<g><path style="opacity:1" fill="#bdbdbd" d="M -0.5,127.5 C 0.5,127.5 1.5,127.5 2.5,127.5C 2.5,131.5 2.5,135.5 2.5,139.5C 1.5,139.5 0.5,139.5 -0.5,139.5C -0.5,135.5 -0.5,131.5 -0.5,127.5 Z"/></g>
</svg>
